<?xml version="1.0" encoding="UTF-8" standalone="no"?>
<!DOCTYPE svg PUBLIC "-//W3C//DTD SVG 1.1//EN" "http://www.w3.org/Graphics/SVG/1.1/DTD/svg11.dtd">
<svg width="100%" height="100%" viewBox="0 0 16 16" version="1.1" xmlns="http://www.w3.org/2000/svg" xmlns:xlink="http://www.w3.org/1999/xlink" xml:space="preserve" xmlns:serif="http://www.serif.com/" style="fill-rule:evenodd;clip-rule:evenodd;stroke-linejoin:round;stroke-miterlimit:2;">
    <g transform="matrix(1.01011,0,0,1.488,-0.476353,-2.13677)">
        <rect x="1.635" y="1.466" width="15.84" height="10.753" style="fill:rgb(235,235,235);fill-opacity:0;"/>
    </g>
    <g transform="matrix(6.67513e-17,1.09013,-1.09013,6.67513e-17,16.7573,-0.198187)">
        <path d="M2.984,4.047C2.984,3.824 3.099,3.617 3.289,3.5C3.479,3.383 3.716,3.373 3.915,3.474C5.745,4.397 9.803,6.444 11.787,7.445C12.004,7.554 12.14,7.776 12.14,8.018C12.14,8.261 12.004,8.483 11.787,8.592C9.804,9.593 5.746,11.642 3.916,12.566C3.716,12.666 3.479,12.656 3.289,12.539C3.099,12.423 2.984,12.215 2.984,11.992C2.984,10.066 2.984,5.973 2.984,4.047Z" style="fill:rgb(51,92,92);"/>
    </g>
</svg>
